<svg width="60" height="60" viewBox="0 0 60 60" fill="none" xmlns="http://www.w3.org/2000/svg">
<path d="M29.5 59C45.7924 59 59 45.7924 59 29.5C59 13.2076 45.7924 0 29.5 0C13.2076 0 0 13.2076 0 29.5C0 45.7924 13.2076 59 29.5 59Z" fill="#383838"/>
<path d="M25.268 33.6562C25.6475 33.568 26.0845 33.5239 26.579 33.5239C27.7635 33.5239 28.7697 33.9154 29.5977 34.6985C30.4372 35.4816 30.857 36.4412 30.857 37.5772C30.857 38.6801 30.4947 39.6066 29.7702 40.3566C29.0572 41.1066 28.1315 41.5313 26.993 41.6305C26.6825 41.7077 26.3605 41.7463 26.027 41.7463C24.6125 41.7463 23.4337 41.2335 22.4907 40.2077C21.6282 39.2813 21.197 38.1562 21.197 36.8327V29.1562C21.197 28.1967 21.4212 27.4356 21.8697 26.8731C22.4102 26.2334 22.9507 25.875 23.4912 25.7978C23.6982 25.7757 23.8247 25.6875 23.8707 25.5331L18.92 24.9706L19.1787 22.4393C19.6847 22.2408 20.2885 21.7721 20.99 21.0331C21.933 20.0404 23.129 19.1691 24.578 18.4191C26.0385 17.6691 27.7577 17.2941 29.7357 17.2941C32.1392 17.2941 34.0712 17.5919 35.5317 18.1875C36.3942 18.5404 37.1705 19.0312 37.8605 19.6599C38.493 20.2224 39.0277 20.9007 39.4647 21.6948C39.7752 22.2684 39.9765 22.8143 40.0685 23.3327C40.172 23.9393 40.2237 24.6287 40.2237 25.4007V41.3823H36.1355V25.5331C36.1355 23.8676 35.756 22.5662 34.997 21.6287C34.0195 20.4816 32.2657 19.9081 29.7357 19.9081C28.7927 19.9081 27.9475 20.0018 27.2 20.1893C26.5675 20.3437 25.889 20.6195 25.1645 21.0166C24.3365 21.4577 23.75 21.8327 23.405 22.1415C22.9795 22.5386 22.6287 22.864 22.3527 23.1176L28.649 24.0441L28.3557 25.9301C27.4932 25.9301 26.8492 26.1397 26.4237 26.5588C25.6532 27.1654 25.268 28.0313 25.268 29.1562V33.6562ZM28.3902 37.5772C28.3902 37.0809 28.212 36.6562 27.8555 36.3033C27.5105 35.9503 27.085 35.7739 26.579 35.7739C26.05 35.7739 25.6072 35.9503 25.2507 36.3033C24.8942 36.6452 24.716 37.0698 24.716 37.5772C24.716 38.7904 25.337 39.3971 26.579 39.3971C27.085 39.3971 27.5105 39.2151 27.8555 38.8511C28.212 38.4871 28.3902 38.0625 28.3902 37.5772Z" fill="#E4E4E4"/>
</svg>
