<svg width="287" height="260" viewBox="0 0 287 260" fill="none" xmlns="http://www.w3.org/2000/svg">
<path d="M7.71138 251.256C5.40738 251.256 3.61538 250.488 2.33538 248.952C1.07671 247.416 0.447375 245.261 0.447375 242.488C0.447375 239.992 0.980708 237.987 2.04738 236.472C3.11404 234.957 4.66071 233.997 6.68738 233.592L9.37538 235.48L12.2234 233.592C14.0794 233.955 15.4447 234.648 16.3194 235.672C17.2154 236.675 17.6634 238.029 17.6634 239.736V251H13.3114V240.632C13.3114 238.989 12.746 237.944 11.6154 237.496L9.66338 238.648H9.21538L7.13538 237.368C6.38871 237.709 5.81271 238.328 5.40738 239.224C5.02338 240.099 4.83138 241.197 4.83138 242.52C4.83138 244.227 5.15138 245.56 5.79138 246.52C6.43138 247.459 7.33804 247.928 8.51138 247.928C8.91671 247.928 9.47138 247.832 10.1754 247.64L11.0074 250.552C10.1327 251.021 9.03404 251.256 7.71138 251.256ZM28.0216 251.32C26.7416 251.32 25.4616 251.192 24.1816 250.936C22.9016 250.659 21.835 250.307 20.9816 249.88L21.9736 246.584C24.1496 247.523 26.123 247.992 27.8936 247.992C28.9176 247.992 29.6643 247.843 30.1336 247.544C30.6243 247.224 30.8696 246.755 30.8696 246.136C30.8696 245.667 30.731 245.293 30.4536 245.016C30.1976 244.739 29.8136 244.504 29.3016 244.312C28.811 244.12 28.0643 243.896 27.0616 243.64C25.867 243.32 24.8856 242.979 24.1176 242.616C23.3496 242.253 22.7203 241.741 22.2296 241.08C21.7603 240.419 21.5256 239.544 21.5256 238.456C21.5256 236.792 22.123 235.533 23.3176 234.68C24.5123 233.827 26.2723 233.4 28.5976 233.4C29.6856 233.4 30.7736 233.507 31.8616 233.72C32.971 233.933 33.9096 234.211 34.6776 234.552L33.7176 237.688C31.691 237.048 29.9843 236.728 28.5976 236.728C26.7843 236.728 25.8776 237.219 25.8776 238.2C25.8776 238.797 26.1656 239.245 26.7416 239.544C27.339 239.843 28.2456 240.152 29.4616 240.472C30.1443 240.643 30.6456 240.781 30.9656 240.888C32.3523 241.315 33.4083 241.912 34.1336 242.68C34.859 243.448 35.2216 244.504 35.2216 245.848C35.2216 247.597 34.5923 248.952 33.3336 249.912C32.0963 250.851 30.3256 251.32 28.0216 251.32ZM43.6166 251.32C42.5713 251.32 41.4726 251.181 40.3206 250.904C39.1686 250.627 38.1553 250.253 37.2806 249.784L38.5606 246.68C40.2673 247.555 41.7926 247.992 43.1366 247.992C44.566 247.992 45.686 247.48 46.4966 246.456C47.3073 245.432 47.7126 244.013 47.7126 242.2C47.7126 240.429 47.3286 239.075 46.5606 238.136C45.7926 237.197 44.6726 236.728 43.2006 236.728C41.942 236.728 40.4273 237.133 38.6566 237.944L37.3766 234.776C38.1446 234.371 39.1046 234.04 40.2566 233.784C41.43 233.528 42.55 233.4 43.6166 233.4C46.326 233.4 48.406 234.157 49.8566 235.672C51.3286 237.187 52.0646 239.352 52.0646 242.168C52.0646 245.027 51.318 247.267 49.8246 248.888C48.3313 250.509 46.262 251.32 43.6166 251.32ZM61.2999 233.4C64.2225 233.4 66.4519 234.125 67.9879 235.576C69.5239 237.005 70.2919 239.085 70.2919 241.816C70.2919 243.736 69.9399 245.411 69.2359 246.84C68.5319 248.248 67.5185 249.336 66.1959 250.104C64.8732 250.872 63.3159 251.256 61.5239 251.256C60.7559 251.256 59.9345 251.16 59.0599 250.968L57.1719 243.992H54.8999V241.304H60.5959L62.3879 247.96C63.4759 247.747 64.3399 247.128 64.9799 246.104C65.6199 245.059 65.9399 243.747 65.9399 242.168C65.9399 240.419 65.5132 239.085 64.6599 238.168C63.8065 237.251 62.5692 236.792 60.9479 236.792C59.0919 236.792 57.3212 237.379 55.6359 238.552L54.0679 235.48C56.0305 234.093 58.4412 233.4 61.2999 233.4ZM90.8556 232.76V236.088C90.3436 236.024 89.8103 235.992 89.2556 235.992C88.4663 235.992 87.7516 236.056 87.1116 236.184C87.8796 236.952 88.2636 238.168 88.2636 239.832V251H83.9116V243.672H82.1836C80.157 243.672 78.6956 243.864 77.7996 244.248C76.925 244.611 76.4876 245.229 76.4876 246.104C76.4876 246.744 76.701 247.245 77.1276 247.608C77.5543 247.949 78.1623 248.12 78.9516 248.12C79.5276 248.12 80.2103 248.013 80.9996 247.8L81.6076 250.68C80.7543 251.064 79.6343 251.256 78.2476 251.256C76.349 251.256 74.8556 250.808 73.7676 249.912C72.6796 248.995 72.1356 247.736 72.1356 246.136C72.1356 244.28 72.925 242.904 74.5036 242.008C76.1036 241.091 78.5463 240.632 81.8316 240.632C82.7063 240.632 83.3996 240.643 83.9116 240.664V239.992C83.9116 238.861 83.5916 238.04 82.9516 237.528C82.333 236.995 81.341 236.728 79.9756 236.728C78.973 236.728 78.0236 236.845 77.1276 237.08C76.2316 237.293 75.261 237.667 74.2156 238.2L72.8716 235.16C73.8956 234.627 75.069 234.2 76.3916 233.88C77.7143 233.56 79.005 233.4 80.2636 233.4C82.653 233.4 84.4343 233.837 85.6076 234.712C86.1623 234.051 86.8343 233.56 87.6236 233.24C88.413 232.92 89.3623 232.76 90.4716 232.76H90.8556ZM100.644 251.288C97.9985 251.288 95.9185 250.531 94.4039 249.016C92.8892 247.501 92.1319 245.421 92.1319 242.776C92.1319 242.051 92.1639 241.517 92.2279 241.176H101.572V244.152H96.2919C96.3772 245.325 96.8039 246.253 97.5719 246.936C98.3612 247.619 99.3532 247.96 100.548 247.96C101.999 247.96 103.129 247.469 103.94 246.488C104.772 245.485 105.188 244.12 105.188 242.392C105.188 240.643 104.719 239.277 103.78 238.296C102.841 237.293 101.551 236.792 99.9079 236.792C99.0119 236.792 98.0732 236.952 97.0919 237.272C96.1319 237.592 95.2252 238.029 94.3719 238.584L92.6119 235.576C93.6145 234.915 94.7985 234.392 96.1639 234.008C97.5505 233.603 98.9159 233.4 100.26 233.4C102.18 233.4 103.833 233.763 105.22 234.488C106.628 235.192 107.705 236.216 108.452 237.56C109.199 238.883 109.572 240.451 109.572 242.264C109.572 244.099 109.209 245.699 108.484 247.064C107.78 248.429 106.756 249.475 105.412 250.2C104.068 250.925 102.479 251.288 100.644 251.288ZM120.598 251.32C118.102 251.32 116.139 250.712 114.71 249.496C113.281 248.28 112.566 246.627 112.566 244.536V233.72H116.918V244.248C116.918 245.379 117.249 246.275 117.91 246.936C118.571 247.597 119.467 247.928 120.598 247.928C121.771 247.928 122.699 247.597 123.382 246.936C124.065 246.275 124.406 245.379 124.406 244.248V233.72H128.758V244.536C128.758 246.627 128.022 248.28 126.55 249.496C125.099 250.712 123.115 251.32 120.598 251.32ZM149.227 228.28V244.536C149.227 246.627 148.491 248.28 147.019 249.496C145.568 250.712 143.584 251.32 141.067 251.32C138.571 251.32 136.608 250.712 135.179 249.496C133.749 248.28 133.035 246.627 133.035 244.536V233.72H137.387V244.248C137.387 245.379 137.717 246.275 138.379 246.936C139.04 247.597 139.936 247.928 141.067 247.928C142.24 247.928 143.168 247.597 143.851 246.936C144.533 246.275 144.875 245.379 144.875 244.248V228.28H149.227ZM133.951 228.568C134.442 228.547 134.879 228.493 135.263 228.408C136.031 228.237 136.415 227.832 136.415 227.192C136.415 226.488 135.999 226.136 135.167 226.136C134.762 226.136 134.378 226.211 134.015 226.36L133.727 223.896C134.858 223.512 135.989 223.32 137.119 223.32C138.165 223.32 138.975 223.555 139.551 224.024C140.127 224.493 140.415 225.155 140.415 226.008C140.415 226.435 140.351 226.84 140.223 227.224C140.074 227.608 139.871 227.928 139.615 228.184H143.071V231H133.951V228.568ZM158.783 239.192C158.783 237.507 157.909 236.664 156.159 236.664C155.178 236.664 153.941 236.973 152.447 237.592L151.551 234.424C153.301 233.741 155.103 233.4 156.959 233.4C159.071 233.4 160.629 233.88 161.631 234.84C162.634 235.779 163.135 237.251 163.135 239.256V251H158.783V239.192ZM174.836 251.32C172.169 251.32 170.111 250.861 168.66 249.944C167.231 249.005 166.516 247.683 166.516 245.976C166.516 244.781 166.836 243.832 167.476 243.128C168.137 242.403 169.087 241.933 170.324 241.72C169.108 241.507 168.169 241.059 167.508 240.376C166.847 239.693 166.516 238.851 166.516 237.848C166.516 236.483 167.049 235.416 168.116 234.648C169.204 233.859 170.676 233.464 172.532 233.464C173.428 233.464 174.26 233.581 175.028 233.816L174.708 236.824C174.239 236.717 173.759 236.664 173.268 236.664C172.479 236.664 171.881 236.813 171.476 237.112C171.071 237.389 170.868 237.805 170.868 238.36C170.868 239.576 171.903 240.184 173.972 240.184H175.124V243.192H174.356C173.097 243.192 172.201 243.373 171.668 243.736C171.135 244.077 170.868 244.653 170.868 245.464C170.868 246.275 171.199 246.893 171.86 247.32C172.543 247.747 173.503 247.96 174.74 247.96C176.105 247.96 177.087 247.672 177.684 247.096C178.303 246.499 178.612 245.539 178.612 244.216V233.72H182.964V244.184C182.964 246.659 182.313 248.472 181.012 249.624C179.711 250.755 177.652 251.32 174.836 251.32ZM197.205 233.4C199.317 233.4 200.917 233.976 202.005 235.128C203.093 236.28 203.637 237.965 203.637 240.184V251H199.285V240.6C199.285 238.147 198.251 236.92 196.181 236.92C195.264 236.92 194.4 237.133 193.589 237.56C192.8 237.965 192.192 238.509 191.765 239.192V251H187.445V233.72H191.637V235.832C192.896 234.211 194.752 233.4 197.205 233.4ZM211.397 240.28C209.818 240.28 208.677 239.928 207.973 239.224C207.269 238.52 206.917 237.379 206.917 235.8V234.936H210.949V235.864C210.949 236.312 211.077 236.643 211.333 236.856C211.589 237.048 211.994 237.144 212.549 237.144H216.421V240.28H211.397ZM211.397 249.24C209.818 249.24 208.677 248.888 207.973 248.184C207.269 247.48 206.917 246.339 206.917 244.76V243.896H210.949V244.824C210.949 245.272 211.077 245.603 211.333 245.816C211.589 246.008 211.994 246.104 212.549 246.104H216.421V249.24H211.397ZM224.463 251.16C222.948 251.16 221.86 250.819 221.199 250.136C220.559 249.432 220.239 248.269 220.239 246.648V233.72H224.591V246.264C224.591 246.797 224.687 247.181 224.879 247.416C225.071 247.629 225.391 247.736 225.839 247.736C226.287 247.736 226.639 247.704 226.895 247.64L227.151 250.808C226.319 251.043 225.423 251.16 224.463 251.16ZM237.723 251.32C235.227 251.32 233.264 250.712 231.835 249.496C230.406 248.28 229.691 246.627 229.691 244.536V233.72H234.043V244.248C234.043 245.379 234.374 246.275 235.035 246.936C235.696 247.597 236.592 247.928 237.723 247.928C238.896 247.928 239.824 247.597 240.507 246.936C241.19 246.275 241.531 245.379 241.531 244.248V233.72H245.883V244.536C245.883 246.627 245.147 248.28 243.675 249.496C242.224 250.712 240.24 251.32 237.723 251.32ZM245.872 225.048V231H231.248V227.864H241.776V225.048H245.872ZM257.68 251.32C255.013 251.32 252.954 250.861 251.504 249.944C250.074 249.005 249.36 247.683 249.36 245.976C249.36 244.781 249.68 243.832 250.32 243.128C250.981 242.403 251.93 241.933 253.168 241.72C251.952 241.507 251.013 241.059 250.352 240.376C249.69 239.693 249.36 238.851 249.36 237.848C249.36 236.483 249.893 235.416 250.96 234.648C252.048 233.859 253.52 233.464 255.376 233.464C256.272 233.464 257.104 233.581 257.872 233.816L257.552 236.824C257.082 236.717 256.602 236.664 256.112 236.664C255.322 236.664 254.725 236.813 254.32 237.112C253.914 237.389 253.712 237.805 253.712 238.36C253.712 239.576 254.746 240.184 256.816 240.184H257.968V243.192H257.2C255.941 243.192 255.045 243.373 254.512 243.736C253.978 244.077 253.712 244.653 253.712 245.464C253.712 246.275 254.042 246.893 254.704 247.32C255.386 247.747 256.346 247.96 257.584 247.96C258.949 247.96 259.93 247.672 260.528 247.096C261.146 246.499 261.456 245.539 261.456 244.216V233.72H265.808V244.184C265.808 246.659 265.157 248.472 263.856 249.624C262.554 250.755 260.496 251.32 257.68 251.32ZM286.289 233.72V251H282.065V248.376C280.87 250.339 279.004 251.32 276.465 251.32C274.396 251.32 272.817 250.744 271.729 249.592C270.641 248.44 270.097 246.755 270.097 244.536V233.72H274.449V244.12C274.449 246.573 275.505 247.8 277.617 247.8C278.513 247.8 279.356 247.597 280.145 247.192C280.934 246.765 281.542 246.211 281.969 245.528V233.72H286.289Z" fill="#F0F0F0"/>
<path d="M145 200C200.228 200 245 155.228 245 100C245 44.7715 200.228 0 145 0C89.7715 0 45 44.7715 45 100C45 155.228 89.7715 200 145 200Z" fill="#383838"/>
<mask id="mask0" mask-type="alpha" maskUnits="userSpaceOnUse" x="86" y="37" width="118" height="131">
<path d="M178.558 69.8207C177.588 66.6019 174.873 64.3105 171.672 64.3105H118.328C115.127 64.3105 112.46 66.6019 111.442 69.8207L101.355 102.5V146.145C101.355 149.146 103.537 151.601 106.204 151.601H111.054C113.721 151.601 115.903 149.146 115.903 146.145V140.69H174.097V146.145C174.097 149.146 176.279 151.601 178.946 151.601H183.796C186.463 151.601 188.645 149.146 188.645 146.145V102.5L178.558 69.8207ZM120.025 75.2218H169.926L175.164 92.1889H114.788L120.025 75.2218ZM178.946 129.778H111.054V102.5H178.946V129.778Z" fill="black"/>
<path d="M123.177 124.322C127.195 124.322 130.452 120.659 130.452 116.139C130.452 111.619 127.195 107.956 123.177 107.956C119.16 107.956 115.903 111.619 115.903 116.139C115.903 120.659 119.16 124.322 123.177 124.322Z" fill="black"/>
<path d="M166.823 124.322C170.84 124.322 174.097 120.659 174.097 116.139C174.097 111.619 170.84 107.956 166.823 107.956C162.805 107.956 159.548 111.619 159.548 116.139C159.548 120.659 162.805 124.322 166.823 124.322Z" fill="black"/>
</mask>
<g mask="url(#mask0)">
<rect x="101" y="53" width="88" height="99" fill="white"/>
</g>
</svg>
