<svg width="40" height="40" viewBox="0 0 40 40" fill="none" xmlns="http://www.w3.org/2000/svg">
<circle cx="20" cy="20" r="20" fill="#383838"/>
<mask id="mask0" mask-type="alpha" maskUnits="userSpaceOnUse" x="0" y="0" width="40" height="40">
<rect width="40" height="40" fill="#C4C4C4"/>
</mask>
<g mask="url(#mask0)">
</g>
<path d="M29.7222 10.2778H26.9444V7.5H13.0556V10.2778H10.2778C8.75 10.2778 7.5 11.5278 7.5 13.0556V14.4444C7.5 17.9861 10.1667 20.875 13.5972 21.3056C14.4722 23.3889 16.3472 24.9583 18.6111 25.4167V29.7222H13.0556V32.5H26.9444V29.7222H21.3889V25.4167C23.6528 24.9583 25.5278 23.3889 26.4028 21.3056C29.8333 20.875 32.5 17.9861 32.5 14.4444V13.0556C32.5 11.5278 31.25 10.2778 29.7222 10.2778ZM10.2778 14.4444V13.0556H13.0556V18.3611C11.4444 17.7778 10.2778 16.25 10.2778 14.4444ZM20 22.7778C17.7083 22.7778 15.8333 20.9028 15.8333 18.6111V10.2778H24.1667V18.6111C24.1667 20.9028 22.2917 22.7778 20 22.7778ZM29.7222 14.4444C29.7222 16.25 28.5556 17.7778 26.9444 18.3611V13.0556H29.7222V14.4444Z" fill="white"/>
</svg>
