<svg width="200" height="200" viewBox="0 0 200 200" fill="none" xmlns="http://www.w3.org/2000/svg">
<path d="M100 200C155.228 200 200 155.228 200 100C200 44.7715 155.228 0 100 0C44.7715 0 0 44.7715 0 100C0 155.228 44.7715 200 100 200Z" fill="#383838"/>
<path d="M138.691 148.59H66.3086C60.9088 148.59 56.5156 144.197 56.5156 138.797V87.2733C56.5156 85.3922 58.0406 83.867 59.9219 83.867C61.8032 83.867 63.3281 85.3922 63.3281 87.2733V138.797C63.3281 140.441 64.6651 141.778 66.3086 141.778H138.691C140.335 141.778 141.672 140.441 141.672 138.797V87.2733C141.672 85.3922 143.197 83.867 145.078 83.867C146.959 83.867 148.484 85.3922 148.484 87.2733V138.797C148.484 144.197 144.091 148.59 138.691 148.59Z" fill="#F0F0F0"/>
<path d="M153.594 99.194C152.722 99.194 151.85 98.8614 151.185 98.1961L108.822 55.8336C105.336 52.3473 99.6638 52.3473 96.1775 55.8336L53.8149 98.1963C52.4847 99.5267 50.3279 99.5267 48.9978 98.1963C47.6674 96.8662 47.6674 94.7094 48.9978 93.3793L91.3605 51.0163C97.5028 44.874 107.497 44.874 113.639 51.0163L156.002 93.3791C157.333 94.7094 157.333 96.866 156.002 98.1961C155.337 98.8614 154.466 99.194 153.594 99.194Z" fill="#F0F0F0"/>
<path d="M116.125 148.59H88.875C86.9937 148.59 85.4688 147.065 85.4688 145.184V114.954C85.4688 109.084 90.2439 104.309 96.1133 104.309H108.887C114.756 104.309 119.531 109.084 119.531 114.954V145.184C119.531 147.065 118.006 148.59 116.125 148.59ZM92.2813 141.778H112.719V114.954C112.719 112.841 111 111.122 108.887 111.122H96.1133C94.0003 111.122 92.2813 112.841 92.2813 114.954V141.778Z" fill="#F0F0F0"/>
</svg>
