<svg width="200" height="200" viewBox="0 0 200 200" fill="none" xmlns="http://www.w3.org/2000/svg">
<g clip-path="url(#clip0)">
<path d="M100.015 200.03C155.251 200.03 200.03 155.251 200.03 100.015C200.03 44.7782 155.251 0 100.015 0C44.7782 0 0 44.7782 0 100.015C0 155.251 44.7782 200.03 100.015 200.03Z" fill="#383838"/>
<path d="M143.886 102.683C143.886 107.9 142.523 113.028 139.973 117.593C138.254 120.706 146.198 135.853 146.198 135.853C144.864 137.157 130.576 128.679 129.035 129.836C126.634 131.584 124.055 133.096 121.358 134.371C114.303 137.632 106.595 139.292 98.8291 139.262C73.9587 139.262 53.8016 122.869 53.8016 102.683C53.8016 82.496 73.9587 66.0739 98.8291 66.0739C123.699 66.0739 143.886 82.4663 143.886 102.683Z" fill="#383838"/>
<path d="M99.1255 142.226C99.0366 142.226 98.918 142.226 98.8291 142.226C86.142 142.226 74.1663 138.195 65.1252 130.843C55.9063 123.373 50.8374 113.354 50.8374 102.683C50.8374 80.8657 72.3581 63.1096 98.8291 63.1096C111.546 63.1096 123.522 67.141 132.563 74.4925C141.782 81.9921 146.85 91.9817 146.85 102.683C146.85 108.315 145.398 113.888 142.7 118.808C142.582 120.735 145.398 127.909 148.837 134.46L149.874 136.416L148.303 137.958C146.169 140.033 143.115 138.64 136.416 135.527C134.371 134.578 131.407 133.215 130.013 132.8C127.701 134.43 125.241 135.853 122.662 137.039C115.281 140.448 107.188 142.226 99.1255 142.226ZM98.8291 69.0382C75.6484 69.0382 56.766 84.1264 56.766 102.683C56.766 121.21 75.6484 136.298 98.8291 136.298C106.151 136.357 113.502 134.756 120.113 131.673C122.603 130.488 125.033 129.065 127.286 127.435C129.361 125.893 131.881 126.931 138.877 130.162C139.38 130.399 139.973 130.666 140.566 130.932C140.299 130.31 140.003 129.687 139.736 129.035C136.12 120.528 136.475 117.801 137.394 116.141C139.707 112.02 140.922 107.366 140.952 102.653C140.922 84.1264 122.039 69.0382 98.8291 69.0382Z" fill="white"/>
</g>
<defs>
<clipPath id="clip0">
<rect width="200" height="200" fill="white"/>
</clipPath>
</defs>
</svg>
